<?xml version="1.0" encoding="utf-8"?>
<!-- Generator: Adobe Illustrator 18.1.1, SVG Export Plug-In . SVG Version: 6.00 Build 0)  -->
<svg version="1.1" id="Layer_1" xmlns="http://www.w3.org/2000/svg" xmlns:xlink="http://www.w3.org/1999/xlink" x="0px" y="0px"
	 viewBox="0 0 110 110" enable-background="new 0 0 110 110" xml:space="preserve">
<g>
	<path fill="#FFFFFF" d="M35.6,67.2h-1v11.3h1c1,0,1.9-0.5,2.5-1.4c0.6-1,1-2.3,1-4.2c0-1.9-0.3-3.3-1-4.3
		C37.4,67.7,36.6,67.2,35.6,67.2z"/>
	<path fill="#FFFFFF" d="M51.1,67.5c-0.2-0.2-0.4-0.3-0.7-0.4c-0.3-0.1-0.5-0.1-0.8-0.1h-1.3v4.7h1.2c0.6,0,1.1-0.2,1.6-0.6
		c0.4-0.4,0.7-1,0.7-1.8c0-0.5-0.1-0.9-0.2-1.2C51.5,67.9,51.3,67.7,51.1,67.5z"/>
	<circle fill="#FFFFFF" cx="52.4" cy="54.7" r="0.9"/>
	<path fill="#FFFFFF" d="M54.8,5.5c-27.6,0-50,22.4-50,50c0,27.6,22.4,50,50,50s50-22.4,50-50C104.8,27.9,82.4,5.5,54.8,5.5z
		 M67.6,29.2c-0.2-0.7-0.4-1.3-0.5-1.8c5.9-0.3,7.8,4.2,7.8,4.2c4,7.4,3.6,15.7,3.6,15.7C78.4,53.1,75,57.7,75,57.7
		c-3,3.8-8.4,3.1-8.4,3.1c-1,0-1-0.3-1-0.3l0.2-1.2c0.2-1,1.3-0.6,1.3-0.6c4.5-0.3,5.3-5.5,5.3-5.5c0.6-4.5-1.3-6.4-3.1-7.2
		c0.1-0.3,0.2-1.1,0.3-1.9c0.1-1.7-0.1-2.9-0.8-3.5c-0.5-0.5-1.2-1-2.1-0.9c-0.7,0.1-1.3,0.4-2.3,1c-0.3,0.2-0.7,0.3-1.3-0.1
		c-0.4-0.3-0.7-0.7-0.7-0.7l0-0.1c-0.1-0.1-1.5-2.2-0.7-4.9c0.2-0.7,0.5-1.2,0.8-1.4c0.3-0.1,0.9,0.1,1.4,0.4
		c0.2,0.1,0.3,0.2,0.5,0.2c1.5,0.6,2.2,0.1,2.5-0.2C67.9,32.9,68.1,31.4,67.6,29.2z M56.2,36.8c1.8-2.1,1-6.6,0.5-8.7
		c2.8-0.1,6.4-0.4,8.2-0.6c0.2,0.4,0.4,1.2,0.6,2.1c0.2,1,0.3,2.2-0.1,2.6c-0.1,0.1-0.3,0.1-0.6,0c-0.1,0-0.3-0.1-0.4-0.2
		c-0.7-0.3-1.9-0.9-3-0.4c-0.8,0.4-1.4,1.2-1.8,2.5c-1,3.5,0.8,6.2,1,6.5c0.7,1,2.4,2.6,4.5,1.4c0.6-0.4,1.2-0.8,1.5-0.8
		c0.1,0,0.5,0,0.8,0.7c0.2,0.4,0.2,1.7-0.1,3.3c-0.4-0.1-0.6-0.1-0.6-0.1c-5.3,0.3-6.3,6.8-6.3,6.8c-0.4,1.9-0.1,7-0.1,7.8
		s-0.4,0.9-0.4,0.9h-5.4c0.9-0.9,1.4-1.8,1.7-2.6c0.5-1.3,0.5-2.3,0.5-2.7c0-0.4,0-2.2-1.5-4.6c-0.3-0.5-0.7-0.9-1.2-1.3
		c0.5-1.5,0.2-2.7,0.2-2.8c0,0-0.2-0.7-0.5-1.5c-0.5-1.2-1.1-1.9-1.8-2.1c-0.3-0.1-1-0.2-1.6,0.4c-0.8,0.7-1.5,0.4-1.7,0.3
		c-0.4-0.3-2-2.2-0.8-5.7c0.3-0.9,0.8-2,1.7-2.1c0.8-0.2,1.7,0.5,1.9,0.7c0.1,0.1,0.1,0.1,0.2,0.2c0.4,0.5,1,1.3,2.1,1.3
		C54.5,38.4,55.3,37.9,56.2,36.8z M49.7,56.5c-2.2,0.4-1.3,3.6-1.3,3.6c0.4,0.4,0,0.7,0,0.7h-1.5c-0.7,0-0.6-0.7-0.6-0.7
		c0-2.6-1.6-2.4-1.6-2.4c-2.1,0-2.4,2.7-2.4,2.7c-0.1,0.5-1,0.5-1,0.5h-0.7c-0.4-0.9-1-2.7-0.9-5.6c0.1-3.7,3.3-4.5,3.4-4.5l0,0
		c0.5-0.1,1.8-0.3,2.8,0c1.2,0.4,3.3,0,3.7-0.1c0.1,0,2.7-0.5,4,1.4c1.3,2,1.2,3.4,1.2,3.5l0,0.1l0,0.1c0,0.1,0.1,2.7-2.4,4.6
		c-0.4,0.3-1.3,0.7-2.5,0.7v-0.9c1.7-0.2,1.8-1.5,1.8-1.5C51.7,56.2,49.7,56.5,49.7,56.5z M29.5,44.2c-2.1-14.9,9-15.9,9-15.9
		c1.1-0.2,2.6-0.3,4.3-0.4c0.4,1.2,1.1,4.5,0,6.1c-0.6,0.9-1.3,1.5-1.8,1.5c-0.4,0-0.7-0.3-0.8-0.5c-0.7-1.4-2.2-3.1-4.4-2.3
		c-0.6,0.2-2.9,1-3.5,4.4l0,0c-0.1,0.4-0.5,4,1.9,4.7c0.3,0.1,1.3,0.4,2.9,0.2c0.1,0,0.2,0,0.3,0.1c0,0.1,0.3,0.6-0.4,2.2l0,0
		c-0.1,0.1-1.5,3.5-7,3.3C29.7,45.8,29.5,44.2,29.5,44.2z M30.5,54.4c0-1.4-0.1-3.1-0.2-4.7c0.1,0,0.1,0,0.2,0
		c6.5,0,8.3-4.3,8.4-4.5c0.7-1.8,0.8-3.2,0.1-4.1c-0.7-0.9-1.8-0.9-1.9-0.9l-0.1,0c-1.2,0.2-2.4-0.1-2.7-1.4c-0.1-0.7,0-1.4,0-1.4
		c0.2-1.1,0.6-1.9,1.3-2.4c0.4-0.3,0.8-0.5,0.8-0.5l0.1,0l0.1,0c1-0.3,1.9,1.3,2.1,1.7c0.6,1.1,1.4,1.4,1.9,1.5c0.1,0,0.1,0,0.2,0
		c1.8,0,3.4-2.1,3.7-2.6l0,0c0.8-1.2,1-2.9,0.8-5c-0.1-0.9-0.3-1.7-0.4-2.2c4.6,0,9.4,0.2,9.4,0.2c0.1,0,0.1,0,0.2,0
		c0.7,2.4,1.2,6.2,0,7.5c-0.8,0.8-0.9,0.7-1.1,0.7c-0.3,0-0.5-0.2-0.7-0.4c-0.1-0.1-0.2-0.2-0.2-0.3c-0.6-0.7-2.1-1.7-3.7-1.3
		c-1.4,0.3-2.4,1.4-3.1,3.4c-1.6,5,1.3,7.6,1.5,7.7l0,0l0,0c0.7,0.4,1.8,1.3,3.3,0.1c0.4-0.3,0.8,0,0.9,0.1c0.3,0.4,0.6,0.9,0.8,1.7
		c0,0.1,0.1,0.7-0.1,1.5c-0.3-0.1-0.6-0.1-0.9-0.2c-1.2-0.2-2.1,0-2.2,0.1c-0.8,0.2-2.2,0.3-2.7,0.1c-1.6-0.5-3.5-0.1-3.8,0
		c-0.2,0-1.3,0.3-2.4,1.2c-1.1,0.8-2.4,2.4-2.5,5.1c-0.1,2.6,0.4,4.4,0.8,5.6h-6.1c-3.1,0-2-1.4-2-1.4
		C30.6,58.4,30.5,54.4,30.5,54.4z M42.8,76.8c-0.3,1.1-0.8,2.1-1.4,2.9c-0.6,0.8-1.4,1.4-2.4,1.9c-1,0.4-2.1,0.7-3.5,0.7h-5.3V63.5
		h5.3c1.3,0,2.5,0.2,3.5,0.7c1,0.4,1.8,1.1,2.4,1.9c0.6,0.8,1.1,1.8,1.4,3c0.3,1.2,0.5,2.5,0.5,3.9C43.3,74.3,43.1,75.6,42.8,76.8z
		 M65.5,82.2l-0.8-3.4h-4.2l-0.8,3.4h-7.7l-2.5-7.4h-1.2v7.4h-4.1V63.5h6c1.8,0,3.2,0.5,4.2,1.4c1,0.9,1.5,2.3,1.5,4.2
		c0,0.7-0.1,1.3-0.2,1.8c-0.2,0.5-0.4,1-0.6,1.4c-0.3,0.4-0.5,0.7-0.9,0.9c-0.3,0.2-0.6,0.4-0.9,0.5l2.6,6.8l4.2-17.2h5.3l4.5,18.7
		H65.5z M76.3,75.5v6.7h-4.1v-6.7l-4.7-12H72l2.2,7.2l2.3-7.2H81L76.3,75.5z"/>
	<circle fill="#FFFFFF" cx="72.6" cy="35.9" r="1.4"/>
	<polygon fill="#FFFFFF" points="62.6,67.6 61,75.5 64.2,75.5 62.7,67.6 	"/>
</g>
</svg>
