<?xml version="1.0" encoding="utf-8"?>
<!-- Generator: Adobe Illustrator 18.1.1, SVG Export Plug-In . SVG Version: 6.00 Build 0)  -->
<svg version="1.1" id="Layer_1" xmlns="http://www.w3.org/2000/svg" xmlns:xlink="http://www.w3.org/1999/xlink" x="0px" y="0px"
	 viewBox="0 0 210 80" enable-background="new 0 0 210 80" xml:space="preserve">
<g>
	<path fill="#FFFFFF" d="M54.6,27.5c-2,0-3.3-1.6-4.1-2.6c-0.1-0.2-0.3-0.3-0.4-0.4C49.8,24,48,22.7,46.4,23
		c-1.7,0.3-2.7,2.5-3.3,4.2c-2.2,6.8,0.8,10.5,1.7,11.1c0.5,0.2,1.9,0.8,3.4-0.5c1.3-1.2,2.6-1,3.2-0.8c1.4,0.4,2.6,1.8,3.6,4.2
		c0.6,1.5,1,2.9,1,3c0,0.1,0.6,2.5-0.4,5.5c0.9,0.7,1.7,1.5,2.3,2.5c3,4.7,3,8.1,3,9c0,0.6,0,2.7-0.9,5.2c-0.6,1.5-1.6,3.4-3.3,5.2
		h10.5c0,0,0.8-0.3,0.8-1.8c0-1.5-0.6-11.4,0.1-15.2c0,0,2-12.8,12.3-13.4c0,0,0.4,0,1.1,0.1c0.6-3,0.5-5.6,0.2-6.4
		c-0.6-1.4-1.3-1.4-1.6-1.4c-0.6,0-1.8,0.8-3,1.5c-4.1,2.3-7.6-0.8-8.9-2.8c-0.5-0.6-4-5.9-2-12.8c0.8-2.6,2-4.3,3.6-5
		c2.2-1,4.4,0.1,5.8,0.7c0.3,0.1,0.6,0.3,0.8,0.4c0.7,0.3,1,0.3,1.2,0.1c0.9-0.7,0.7-3,0.3-5c-0.4-1.7-0.9-3.2-1.2-4.1
		c-3.5,0.4-10.6,1.1-16.2,1.2c1,4.1,2.6,13-1,17C58,26.5,56.3,27.5,54.6,27.5z"/>
	<path fill="#FFFFFF" d="M75.7,18.7c-0.3-0.1-0.7-0.3-1-0.5c-0.9-0.4-2.1-1-2.8-0.7c-0.6,0.2-1.1,1.2-1.6,2.7
		c-1.6,5.4,1.3,9.4,1.4,9.6l0.1,0.1c0,0,0.5,0.8,1.4,1.4c1.2,0.8,2,0.6,2.6,0.2c2-1.1,3.3-1.8,4.6-2c1.8-0.2,3.1,0.9,4.1,1.9
		c1.3,1.3,1.9,3.5,1.6,6.9c-0.1,1.7-0.4,3.2-0.6,3.8c3.4,1.6,7.2,5.3,6,14.2c0,0-1.7,10.3-10.5,10.9c0,0-2.1-0.8-2.5,1.2l-0.5,2.5
		c0,0,0.1,0.7,2,0.7c0,0,10.6,1.4,16.5-6c0,0,6.7-8.9,6.8-20.4c0,0,0.9-16.3-7-30.9c0,0-3.8-8.8-15.3-8.2c0.3,1,0.7,2.2,1,3.6
		c0.9,4.3,0.4,7.2-1.5,8.9C80.1,18.9,78.6,19.8,75.7,18.7z M91.8,19.8c1.5,0,2.8,1.2,2.8,2.8c0,1.5-1.2,2.8-2.8,2.8
		c-1.5,0-2.8-1.2-2.8-2.8C89.1,21.1,90.3,19.8,91.8,19.8z"/>
	<path fill="#FFFFFF" d="M124.1,70.3c1.9-0.9,3.5-2.1,4.7-3.7c1.2-1.6,2.2-3.5,2.8-5.8c0.6-2.2,0.9-4.8,0.9-7.5
		c0-2.8-0.3-5.4-0.9-7.6c-0.6-2.3-1.5-4.2-2.8-5.8c-1.2-1.6-2.8-2.8-4.7-3.7c-1.9-0.9-4.2-1.3-6.8-1.3H107v36.7h10.3
		C119.9,71.5,122.2,71.1,124.1,70.3z M115.4,42.1h2c2,0,3.6,0.9,4.9,2.8c1.3,1.9,1.9,4.7,1.9,8.4c0,3.6-0.6,6.3-1.9,8.2
		c-1.3,1.9-2.9,2.8-4.9,2.8h-2V42.1z"/>
	<path fill="#FFFFFF" d="M12.7,25.1c1-6.7,5.7-8.4,6.8-8.7c4.3-1.6,7.2,1.9,8.6,4.6c0.2,0.3,0.9,1,1.6,1c1-0.1,2.3-1.3,3.6-3
		c2-3.2,0.7-9.7,0-12C30,7.1,27,7.3,24.9,7.7C24.9,7.7,3,9.8,7.2,39c0,0,0.4,3.1,0.8,7c10.9,0.3,13.7-6.3,13.8-6.5l0,0
		c1.3-3.3,0.8-4.3,0.7-4.4c-0.1-0.2-0.3-0.3-0.5-0.2c-3.1,0.4-5.1-0.2-5.6-0.4C11.8,33.1,12.6,26,12.7,25.1L12.7,25.1z"/>
	<polygon fill="#FFFFFF" points="197.3,71.5 197.3,58.3 206.7,34.9 197.8,34.9 193.3,49 188.9,34.9 179.9,34.9 189.2,58.3 
		189.2,71.5 	"/>
	<path fill="#FFFFFF" d="M13,71.4h11.9c-0.8-2.4-1.6-6-1.5-11.1c0.1-5.4,2.7-8.5,4.9-10.1c2.2-1.7,4.4-2.2,4.8-2.3
		c0.5-0.1,4.3-0.9,7.4,0c1.1,0.4,3.8,0.1,5.4-0.3c0.2,0,2-0.4,4.3-0.1c0.6,0.1,1.2,0.2,1.7,0.4c0.5-1.6,0.2-2.8,0.2-2.9
		c-0.4-1.6-0.9-2.5-1.5-3.3c-0.1-0.2-0.9-0.7-1.8-0.1c-3,2.3-5.2,0.6-6.5-0.3l-0.1-0.1l-0.1-0.1c-0.2-0.2-6.1-5.3-2.9-15.1
		c1.3-3.9,3.3-6.1,6-6.7c3.1-0.6,6,1.2,7.3,2.6c0.2,0.2,0.3,0.4,0.5,0.6c0.4,0.5,0.9,0.8,1.4,0.9c0.3,0,0.7,0.2,2.2-1.4
		c2.3-2.5,1.2-9.9-0.1-14.7c-0.1,0-0.3,0-0.4,0c0,0-9.5-0.5-18.5-0.4c0.3,1,0.6,2.5,0.8,4.3c0.5,4.2,0,7.5-1.5,9.8l0,0.1
		c-0.6,0.9-3.8,5-7.2,5c-0.1,0-0.2,0-0.3,0c-1.1-0.1-2.7-0.7-3.8-2.9c-0.4-0.8-2.1-4-4.1-3.4l-0.2,0L21,20c0,0-0.8,0.2-1.6,0.9
		c-1.3,1.1-2.2,2.7-2.5,4.8c0,0.2-0.3,1.5,0,2.8c0.5,2.4,2.9,3,5.3,2.7l0.1,0c0.2,0,2.4-0.1,3.7,1.7c1.3,1.8,1.2,4.4-0.2,8
		c-0.2,0.5-3.7,8.9-16.5,8.9c-0.1,0-0.3,0-0.4,0C9,53,9.2,56.3,9.2,59c0,0,0.2,7.7-0.1,9.6C9.1,68.6,7,71.4,13,71.4z"/>
	<path fill="#FFFFFF" d="M142.5,56.9h2.4l4.9,14.6H165l1.5-6.7h8.2l1.5,6.7h8.7L176,34.9h-10.4l-8.2,33.7l-5.1-13.4
		c0.6-0.2,1.2-0.6,1.8-1c0.6-0.5,1.2-1.1,1.7-1.9c0.5-0.8,0.9-1.7,1.2-2.7c0.3-1.1,0.5-2.3,0.5-3.6c0-3.7-1-6.4-2.9-8.3
		c-2-1.8-4.7-2.8-8.3-2.8h-11.7v36.7h8V56.9z M170.5,42.8h0.2l3,15.6h-6.3L170.5,42.8z M142.5,41.8h2.6c0.5,0,1,0.1,1.5,0.2
		c0.5,0.1,1,0.4,1.4,0.7c0.4,0.3,0.8,0.8,1,1.4c0.3,0.6,0.4,1.3,0.4,2.3c0,1.7-0.4,2.9-1.3,3.6c-0.9,0.7-1.9,1.1-3.1,1.1h-2.4V41.8z
		"/>
	<path fill="#FFFFFF" d="M40.1,70c0,0-0.2,1.4,1.2,1.4h3c0,0,0.9-0.7,0-1.4c0,0-1.6-6.2,2.6-7c0,0,3.9-0.5,3.8,3.7
		c0,0-0.2,2.6-3.6,2.9v1.8c2.5,0,4.1-0.7,5-1.3c5-3.6,4.7-8.7,4.7-9l0-0.1l0-0.2c0-0.2,0.1-2.9-2.4-6.8c-2.4-3.8-7.5-2.8-7.8-2.7
		c-0.8,0.2-4.8,0.9-7.2,0.2c-1.9-0.6-4.6-0.2-5.5,0l0,0c-0.3,0.1-6.6,1.5-6.8,8.9c-0.1,5.7,1,9.3,1.8,11h1.4c0,0,1.7,0.1,1.9-0.9
		c0,0,0.6-5.2,4.7-5.2C36.9,65.3,40.1,64.9,40.1,70z M52.3,57.8c1,0,1.8,0.8,1.8,1.8c0,1-0.8,1.8-1.8,1.8c-1,0-1.8-0.8-1.8-1.8
		C50.4,58.6,51.3,57.8,52.3,57.8z"/>
</g>
</svg>
